<?xml version="1.0" encoding="utf-8"?><svg version="1.1" id="Layer_1" xmlns="http://www.w3.org/2000/svg" xmlns:xlink="http://www.w3.org/1999/xlink" x="0px" y="0px" viewBox="0 0 95.42 122.88" style="enable-background:new 0 0 95.42 122.88" xml:space="preserve"><g><path fill="currentColor" d="M35.99,0h23.13c1.22,0,2.39,0.25,3.46,0.69c1.11,0.46,2.11,1.14,2.94,1.97c0.84,0.84,1.51,1.83,1.97,2.94 c0.44,1.07,0.69,2.24,0.69,3.46v10.12c0,1.05-0.18,2.07-0.52,3.01c-0.29,0.8-0.68,1.56-1.17,2.24c1.91,0.29,3.72,0.87,5.4,1.7 c1.89,0.93,3.6,2.16,5.07,3.63c3.42,3.42,5.54,8.14,5.54,13.33v40.2c0.74-0.25,1.48-0.43,2.21-0.52c0.87-0.11,1.74-0.1,2.59,0.04 c1.13,0.18,2.21,0.57,3.18,1.18c0.93,0.59,1.78,1.38,2.51,2.4c1.45,2.03,2.38,4.99,2.43,8.99c0.04,3.49-0.59,7.77-2.13,12.92 l-2.09,6.98c-0.16,0.53-0.28,0.97-0.38,1.35c-0.11,0.4-0.19,0.73-0.26,1.03c-0.19,0.77-0.33,1.37-0.54,1.88 c-0.22,0.54-0.5,0.97-0.94,1.39c-1.14,1.05-2.29,1.05-4.93,1.05l-0.54,0c-18.6,2.24-52.15-0.28-72.62,0.01 c-2.43,0.02-3.58,0.03-4.71-0.96l-0.07-0.05c-0.96-0.87-1.16-1.85-1.54-3.66l0,0c-0.07-0.32-0.14-0.68-0.23-1.08 c-0.09-0.4-0.2-0.87-0.34-1.44l-1.74-6.89c-0.18-0.73-0.33-1.28-0.48-1.83l-0.02-0.09c-0.82-3.11-1.72-6.51-1.86-9.88 c-0.14-3.4,0.51-6.76,2.8-9.7c0.55-0.7,1.16-1.3,1.83-1.8c0.67-0.5,1.41-0.88,2.18-1.15c0.73-0.25,1.49-0.4,2.27-0.44 c0.77-0.04,1.56,0.03,2.36,0.21c0.16,0.04,0.32,0.08,0.47,0.12l0.05,0.01V43.08c0-2.54,0.51-4.98,1.43-7.2 c0.96-2.31,2.37-4.39,4.11-6.13c1.54-1.54,3.34-2.82,5.34-3.76c1.77-0.83,3.69-1.4,5.71-1.65c-0.47-0.67-0.85-1.41-1.13-2.2 c-0.33-0.93-0.51-1.94-0.51-2.97V9.06c0-1.22,0.25-2.39,0.69-3.46c0.46-1.11,1.14-2.11,1.97-2.94l0.02-0.02 c0.83-0.83,1.82-1.5,2.92-1.95C33.6,0.25,34.77,0,35.99,0L35.99,0z M62.61,47.01c0.34-0.52,0.86-0.85,1.42-0.96 c0.56-0.12,1.16-0.02,1.67,0.31l0.03,0.02c0.51,0.34,0.84,0.85,0.95,1.41c0.11,0.56,0.02,1.16-0.31,1.67l-0.02,0.02 c-1.49,2.26-2.84,4.64-4.03,7.15c-1.19,2.51-2.22,5.14-3.06,7.91c-0.84,2.78-1.5,5.7-1.95,8.79c-0.45,3.09-0.69,6.34-0.71,9.77 c0,0.62-0.25,1.18-0.66,1.58c-0.41,0.41-0.97,0.66-1.59,0.66c-0.62,0-1.18-0.25-1.59-0.66l-0.02-0.02 c-0.39-0.4-0.64-0.96-0.64-1.57c0.01-3.66,0.27-7.14,0.76-10.44c0.48-3.3,1.19-6.44,2.09-9.42c0.91-2.99,2.01-5.83,3.29-8.52 C59.54,52.02,61,49.46,62.61,47.01L62.61,47.01z M28.88,49.5l-0.04-0.06c-0.32-0.51-0.42-1.1-0.3-1.65 c0.11-0.55,0.43-1.06,0.93-1.4l0.06-0.04c0.51-0.32,1.1-0.42,1.65-0.3c0.56,0.12,1.08,0.45,1.42,0.96c1.61,2.45,3.07,5.01,4.35,7.7 c1.28,2.7,2.39,5.53,3.3,8.52c0.91,2.99,1.61,6.12,2.09,9.42c0.48,3.3,0.74,6.77,0.75,10.44c0,0.62-0.25,1.18-0.66,1.58 c-0.4,0.41-0.97,0.66-1.58,0.66c-0.62,0-1.18-0.25-1.58-0.66c-0.41-0.41-0.66-0.97-0.66-1.59c-0.01-3.43-0.25-6.68-0.7-9.77 c-0.45-3.09-1.11-6.01-1.95-8.79c-0.84-2.77-1.87-5.4-3.06-7.91C31.72,54.13,30.37,51.76,28.88,49.5L28.88,49.5z M78,85.94V43.08 c0-1.94-0.39-3.79-1.09-5.48c-0.73-1.76-1.8-3.34-3.13-4.67c-1.33-1.33-2.91-2.4-4.67-3.13c-1.69-0.7-3.54-1.09-5.48-1.09H30.85 c-1.94,0-3.79,0.39-5.48,1.09c-1.76,0.73-3.34,1.8-4.67,3.13c-1.33,1.33-2.4,2.91-3.13,4.67c-0.7,1.69-1.09,3.54-1.09,5.48v42.73 c1.31,1.11,2.61,2.56,3.83,4.39c1.12,1.67,2.17,3.66,3.13,5.97c3.56-1.8,7.24-3.13,11.03-4.01c3.9-0.91,7.92-1.34,12.06-1.32 c4.12,0.02,8.35,0.51,12.68,1.43c4.22,0.9,8.54,2.21,12.95,3.93c0.45-2.08,1.18-3.97,2.11-5.62C75.3,88.73,76.59,87.17,78,85.94 L78,85.94z M13.44,89.13c-0.19-0.07-0.36-0.17-0.52-0.28c-0.16-0.12-0.31-0.26-0.44-0.41c-0.34-0.21-0.67-0.39-1-0.53 c-0.34-0.15-0.68-0.26-1.01-0.34c-0.39-0.09-0.77-0.12-1.13-0.11c-0.36,0.01-0.71,0.08-1.04,0.19c-0.36,0.12-0.7,0.31-1.03,0.56 c-0.33,0.25-0.63,0.55-0.92,0.92c-1.59,2.05-1.98,4.63-1.8,7.35c0.18,2.76,0.96,5.68,1.66,8.34l0.03,0.13 c0.18,0.7,0.36,1.37,0.48,1.83l1.74,6.89c0.25,1.01,0.45,1.94,0.61,2.7l0.01,0.03c0.1,0.51,0.16,0.87,0.2,1.1 c0,0.03,0,0.04-0.01,0.06c0.02-0.01,0.06-0.02,0.11-0.02c0.3-0.02,0.81-0.06,1.6-0.07l1.42-0.02h71.13l0.08,0.01l0.53,0 c0.86,0,1.41,0.03,1.73,0.05c0.05,0,0.09,0.01,0.13,0.03l0-0.04c0.04-0.19,0.09-0.5,0.2-0.93l0.01-0.02 c0.17-0.71,0.39-1.6,0.69-2.59l2.09-6.98c1.34-4.47,1.94-8.11,1.98-11.01c0.05-3.25-0.58-5.55-1.63-7.02 c-0.36-0.5-0.77-0.89-1.22-1.18c-0.47-0.3-0.97-0.49-1.5-0.57c-0.56-0.09-1.17-0.07-1.79,0.06c-0.63,0.13-1.28,0.36-1.93,0.7 c-1.73,0.89-3.37,2.46-4.6,4.58c-1.11,1.9-1.88,4.25-2.08,6.96l-0.01,0.06c-0.01,0.1-0.03,0.2-0.05,0.3l0,0.01 c-0.03,0.11-0.06,0.22-0.11,0.33c-0.24,0.57-0.69,0.99-1.22,1.21c-0.53,0.22-1.14,0.23-1.71-0.01c-4.69-1.98-9.26-3.49-13.7-4.52 c-4.43-1.02-8.73-1.55-12.89-1.58c-4.12-0.02-8.12,0.45-11.98,1.44c-3.86,0.99-7.59,2.5-11.18,4.54l-0.18,0.09 c-0.06,0.03-0.13,0.06-0.19,0.08l-0.02,0.01c-0.58,0.19-1.18,0.14-1.69-0.11c-0.52-0.25-0.94-0.7-1.14-1.28 c-0.92-2.64-1.95-4.83-3.05-6.62C15.91,91.57,14.68,90.13,13.44,89.13L13.44,89.13z M86.05,117.57l0.01,0.01 C86.06,117.57,86.06,117.57,86.05,117.57L86.05,117.57z M59.12,4.5H35.99c-0.61,0-1.2,0.12-1.74,0.35 c-0.56,0.23-1.06,0.57-1.48,0.99l-0.02,0.02c-0.41,0.42-0.75,0.92-0.98,1.47c-0.22,0.53-0.35,1.12-0.35,1.74v10.12 c0,1.25,0.51,2.39,1.34,3.22l0.02,0.02c0.82,0.82,1.96,1.32,3.2,1.32h23.13c1.25,0,2.39-0.51,3.22-1.34l0.02-0.02 c0.82-0.83,1.32-1.96,1.32-3.2V9.06c0-0.61-0.12-1.2-0.35-1.74c-0.23-0.56-0.57-1.06-1-1.48c-0.42-0.42-0.93-0.76-1.48-0.99 C60.32,4.62,59.74,4.5,59.12,4.5L59.12,4.5z"/></g></svg>